<svg width="16" height="20" viewBox="0 0 16 20" fill="none" xmlns="http://www.w3.org/2000/svg">
<g filter="url(#filter0_dd)">
<path d="M11.166 8.83203C11.2754 9.05469 11.3574 9.28516 11.4121 9.52344C11.4707 9.76172 11.5 10.0039 11.5 10.25C11.5 10.5938 11.4551 10.9258 11.3652 11.2461C11.2754 11.5664 11.1484 11.8652 10.9844 12.1426C10.8242 12.4199 10.6289 12.6738 10.3984 12.9043C10.1719 13.1309 9.91992 13.3262 9.64258 13.4902C9.36523 13.6504 9.06641 13.7754 8.74609 13.8652C8.42578 13.9551 8.09375 14 7.75 14C7.40625 14 7.07422 13.9551 6.75391 13.8652C6.43359 13.7754 6.13477 13.6504 5.85742 13.4902C5.58008 13.3262 5.32617 13.1309 5.0957 12.9043C4.86914 12.6738 4.67383 12.4199 4.50977 12.1426C4.34961 11.8652 4.22461 11.5664 4.13477 11.2461C4.04492 10.9258 4 10.5938 4 10.25C4 10.0039 4.02734 9.76172 4.08203 9.52344C4.14062 9.28516 4.22461 9.05469 4.33398 8.83203L7.75 2L11.166 8.83203Z" fill="white"/>
</g>
<defs>
<filter id="filter0_dd" x="0.4" y="1.19209e-07" width="14.7" height="19.2" filterUnits="userSpaceOnUse" color-interpolation-filters="sRGB">
<feFlood flood-opacity="0" result="BackgroundImageFix"/>
<feColorMatrix in="SourceAlpha" type="matrix" values="0 0 0 0 0 0 0 0 0 0 0 0 0 0 0 0 0 0 127 0"/>
<feOffset dy="1.6"/>
<feGaussianBlur stdDeviation="1.8"/>
<feColorMatrix type="matrix" values="0 0 0 0 0 0 0 0 0 0 0 0 0 0 0 0 0 0 0.13 0"/>
<feBlend mode="normal" in2="BackgroundImageFix" result="effect1_dropShadow"/>
<feColorMatrix in="SourceAlpha" type="matrix" values="0 0 0 0 0 0 0 0 0 0 0 0 0 0 0 0 0 0 127 0"/>
<feOffset dy="0.3"/>
<feGaussianBlur stdDeviation="0.45"/>
<feColorMatrix type="matrix" values="0 0 0 0 0 0 0 0 0 0 0 0 0 0 0 0 0 0 0.1 0"/>
<feBlend mode="normal" in2="effect1_dropShadow" result="effect2_dropShadow"/>
<feBlend mode="normal" in="SourceGraphic" in2="effect2_dropShadow" result="shape"/>
</filter>
</defs>
</svg>
